<svg width="154" height="56" viewBox="0 0 154 56" fill="none" xmlns="http://www.w3.org/2000/svg">
<path d="M4.93229 27.9218V22.3468L4.83649 20.3666C5.87772 21.8237 7.67071 22.8534 9.80106 22.8534C14.4293 22.8534 17.7123 18.9259 17.7123 14.1108C17.7123 9.3441 14.4772 5.40015 9.72088 5.40015C7.79878 5.40015 5.90896 6.27132 4.6928 7.98173V5.90678H0V27.9218H4.93229ZM8.87228 18.3709C6.74194 18.3709 4.88439 16.645 4.88439 14.1108C4.88439 11.7352 6.64614 9.86618 8.84001 9.86618C11.0339 9.86618 12.8435 11.4664 12.8435 14.1108C12.8435 16.8829 10.9704 18.3709 8.87228 18.3709Z" fill="#161616"/>
<path d="M27.2396 22.8535C29.6573 22.8535 31.6106 21.903 32.6196 20.24V22.3149H37.3124V5.90685H32.6362V8.01372C31.6273 6.33523 29.6573 5.38477 27.2073 5.38477C22.8352 5.38477 19.6001 9.32768 19.6001 14.1109C19.6001 18.926 22.7873 22.8535 27.2396 22.8535ZM28.4401 18.3555C26.342 18.3555 24.4845 16.8984 24.4845 14.1109C24.4845 11.4665 26.2785 9.86625 28.4568 9.86625C30.6662 9.86625 32.428 11.7517 32.428 14.1109C32.428 16.5184 30.6985 18.3555 28.4401 18.3555Z" fill="#161616"/>
<path d="M46.0714 22.3148V14.7605C46.0714 11.7197 47.5603 10.0566 50.0426 10.0566H51.6919V5.90674H49.7698C47.8321 5.90674 46.5993 6.8572 45.8465 8.21956V5.90674H41.1224V22.3148H46.0714Z" fill="#161616"/>
<path d="M60.6917 22.8535C63.1094 22.8535 65.0628 21.903 66.0717 20.24V22.3149H70.7645V5.90685H66.0884V8.01372C65.0794 6.33523 63.1094 5.38477 60.6594 5.38477C56.2873 5.38477 53.0522 9.32768 53.0522 14.1109C53.0522 18.926 56.2394 22.8535 60.6917 22.8535ZM61.8923 18.3555C59.7942 18.3555 57.9366 16.8984 57.9366 14.1109C57.9366 11.4665 59.7307 9.86625 61.9089 9.86625C64.1184 9.86625 65.8801 11.7517 65.8801 14.1109C65.8801 16.5184 64.1507 18.3555 61.8923 18.3555Z" fill="#161616"/>
<path d="M81.5248 22.8533C84.0716 22.8533 85.7209 21.5074 86.6174 20.2398V22.3147H91.2935V0H86.3935V6.06524L86.4893 7.87039C85.6886 6.71501 83.9269 5.38457 81.5727 5.38457C76.6883 5.38457 73.6135 9.32749 73.6135 14.1107C73.6135 18.9258 76.7851 22.8533 81.5248 22.8533ZM82.4379 18.3708C80.0358 18.3708 78.4667 16.5182 78.4667 14.1107C78.4667 11.5929 80.1639 9.86605 82.4379 9.86605C84.6953 9.86605 86.4248 11.7351 86.4248 14.1107C86.4248 16.5337 84.6797 18.3708 82.4379 18.3708Z" fill="#161616"/>
<path d="M102.966 22.838C108.235 22.838 111.871 18.9414 111.871 14.1109C111.871 9.31224 108.235 5.38477 102.983 5.38477C97.7624 5.38477 94.1587 9.32768 94.1587 14.1109C94.1587 18.926 97.778 22.838 102.966 22.838ZM103.015 18.3401C100.692 18.3401 99.0431 16.6132 99.0431 14.1109C99.0431 11.624 100.692 9.88272 103.015 9.88272C105.337 9.88272 106.987 11.624 106.987 14.1109C106.987 16.6132 105.337 18.3401 103.015 18.3401Z" fill="#161616"/>
<path d="M130.879 22.3147L125.385 12.3055L130.302 5.90666H124.313L119.653 12.6536V0H114.72V22.3147H119.653V17.8013L121.815 15.5204L125.37 22.3147H130.879Z" fill="#161616"/>
<path d="M139.301 22.8535C143.337 22.8535 146.54 21.0792 146.54 17.2465C146.54 13.8421 144.186 12.6538 140.406 12.1152C137.764 11.7352 137.412 11.4974 137.412 10.5788C137.412 9.89817 137.908 9.32768 139.141 9.32768C140.551 9.32768 141.207 10.0094 141.271 10.9279L146.091 10.9598C146.091 7.60182 143.24 5.38477 139.125 5.38477C134.977 5.38477 132.575 7.36395 132.575 10.69C132.575 14.1583 135.33 15.5834 138.629 15.9799C140.567 16.2332 141.495 16.5658 141.495 17.5317C141.495 18.4029 140.918 19.0207 139.334 19.0207C137.588 19.0207 136.787 18.165 136.707 16.9623L131.983 16.9303C131.983 19.8754 134.209 22.8535 139.301 22.8535Z" fill="#161616"/>
<path d="M20.4184 32.7986C18.2246 32.7986 16.367 33.7645 14.8614 36.0928C13.916 33.9704 12.1709 32.7986 9.56053 32.7986C7.33439 32.7986 5.52474 33.8592 4.67614 35.3009L4.61263 33.3207H0V49.7287H4.86877V41.5885C4.86877 38.9905 6.40562 37.2646 8.0872 37.2646C9.7365 37.2646 10.8579 38.3098 10.8579 41.0335V49.7287H15.7256V41.5885C15.7256 38.9905 17.2479 37.2646 18.9451 37.2646C20.5944 37.2646 21.7158 38.3253 21.7158 41.0335V49.7287H26.5835V40.9233C26.5835 35.8549 24.6135 32.7986 20.4184 32.7986Z" fill="#161616"/>
<path d="M37.0239 50.2673C39.4416 50.2673 41.3949 49.3168 42.4039 47.6538V49.7287H47.0967V33.3207H42.4205V35.4275C41.4116 33.749 39.4416 32.7986 36.9916 32.7986C32.6195 32.7986 29.3844 36.7415 29.3844 41.5247C29.3844 46.3398 32.5716 50.2673 37.0239 50.2673ZM38.2244 45.7693C36.1263 45.7693 34.2688 44.3122 34.2688 41.5247C34.2688 38.8803 36.0628 37.2801 38.2411 37.2801C40.4505 37.2801 42.2123 39.1655 42.2123 41.5247C42.2123 43.9323 40.4828 45.7693 38.2244 45.7693Z" fill="#161616"/>
<path d="M58.8178 55.9999C64.3103 55.9999 67.6578 52.8015 67.6578 48.1295V33.3207H62.9817V35.4275C62.2133 34.1918 60.4515 32.7986 57.6808 32.7986C53.0692 32.7986 49.9456 36.7415 49.9456 41.1602C49.9456 45.5953 53.1171 49.2221 57.8412 49.2221C59.9871 49.2221 61.8603 48.6362 62.965 46.8145V48.145C62.965 50.2827 61.7645 51.9303 58.8178 51.9303C56.4792 51.9303 55.5994 51.0911 55.2464 49.6175H50.6182C50.6671 52.817 53.0692 55.9999 58.8178 55.9999ZM58.7856 45.0413C56.5438 45.0413 54.8299 43.473 54.8299 41.1447C54.8299 38.7536 56.5438 37.2801 58.8022 37.2801C61.0596 37.2801 62.7735 39.1171 62.7735 41.1447C62.7735 43.2516 61.044 45.0413 58.7856 45.0413Z" fill="#161616"/>
<path d="M78.1463 50.2673C80.564 50.2673 82.5174 49.3168 83.5263 47.6538V49.7287H88.2191V33.3207H83.543V35.4275C82.534 33.749 80.564 32.7986 78.114 32.7986C73.7419 32.7986 70.5068 36.7415 70.5068 41.5247C70.5068 46.3398 73.694 50.2673 78.1463 50.2673ZM79.3468 45.7693C77.2488 45.7693 75.3912 44.3122 75.3912 41.5247C75.3912 38.8803 77.1853 37.2801 79.3635 37.2801C81.573 37.2801 83.3347 39.1655 83.3347 41.5247C83.3347 43.9323 81.6053 45.7693 79.3468 45.7693Z" fill="#161616"/>
<path d="M105.786 49.7291V45.6431H97.8423L105.402 36.3145V33.321H91.4367V37.4071H98.6753L91.0369 46.783V49.7291H105.786Z" fill="#161616"/>
<path d="M110.861 31.3891C112.783 31.3891 113.824 30.2327 113.824 28.7602C113.824 27.3185 112.783 26.1147 110.878 26.1147C109.003 26.1147 107.963 27.3185 107.963 28.7602C107.963 30.2173 109.02 31.3891 110.861 31.3891ZM113.343 49.729V33.3209H108.411V49.729H113.343Z" fill="#161616"/>
<path d="M122.102 49.7287V41.5885C122.102 38.6579 123.816 37.2646 125.689 37.2646C127.531 37.2646 128.781 38.3098 128.781 41.0335V49.7287H133.713V40.9233C133.713 35.8549 131.599 32.7986 127.083 32.7986C124.793 32.7986 122.823 33.8273 121.879 35.3009V33.3207H117.17V49.7287H122.102Z" fill="#161616"/>
<path d="M153.778 41.398C153.778 36.7261 150.462 32.7986 145.274 32.7986C140.086 32.7986 136.514 36.7415 136.514 41.5247C136.514 46.3079 140.102 50.2518 145.274 50.2518C149.726 50.2518 152.689 47.2893 153.426 44.3761H148.14C147.773 45.3255 146.908 46.0546 145.178 46.0546C143.273 46.0546 141.847 44.9301 141.446 42.7439H153.682C153.745 42.2373 153.778 41.9212 153.778 41.398ZM141.639 39.4498C142.247 37.5499 143.769 36.8053 145.291 36.8053C147.068 36.8053 148.574 37.9298 148.733 39.4498H141.639Z" fill="#161616"/>
</svg>
