<svg width="23" height="48" viewBox="0 0 23 48" fill="none" xmlns="http://www.w3.org/2000/svg">
<mask id="mask0_247_1911" style="mask-type:luminance" maskUnits="userSpaceOnUse" x="0" y="0" width="23" height="28">
<path d="M0 0H22.8473V27.444H0V0Z" fill="white"/>
</mask>
<g mask="url(#mask0_247_1911)">
<mask id="mask1_247_1911" style="mask-type:luminance" maskUnits="userSpaceOnUse" x="0" y="0" width="23" height="28">
<path d="M11.4448 5.32124C13.9885 5.32124 16.1808 7.22406 16.1808 9.51675C16.1808 11.8464 13.9885 13.7492 11.4448 13.7492C8.98947 13.7492 6.70886 11.886 6.70886 9.51675C6.70886 7.18656 8.94534 5.32124 11.4448 5.32124ZM6.49057 16.5839C7.98216 18.2934 10.6999 19.0694 12.8052 19.0694C17.9348 19.0694 22.7579 15.3789 22.7579 9.51516C22.7579 3.68889 17.9336 0 12.8034 0C10.6999 0 7.98037 0.738519 6.49057 2.40732V0.466461H0V27.4139L6.49057 24.5872V16.5839Z" fill="white"/>
</mask>
<g mask="url(#mask1_247_1911)">
<path d="M-0.763428 -0.67627H23.8176V48.5498H-0.763428V-0.67627Z" fill="#161616"/>
</g>
</g>
<mask id="mask2_247_1911" style="mask-type:luminance" maskUnits="userSpaceOnUse" x="0" y="19" width="23" height="29">
<path d="M0.251099 19.6094H23V48.0001H0.251099V19.6094Z" fill="white"/>
</mask>
<g mask="url(#mask2_247_1911)">
<mask id="mask3_247_1911" style="mask-type:luminance" maskUnits="userSpaceOnUse" x="0" y="19" width="23" height="29">
<path d="M11.5987 42.6145C9.05505 42.6145 6.8627 40.6726 6.8627 38.3815C6.8627 36.0904 9.05505 34.1865 11.5987 34.1865C14.054 34.1865 16.2905 36.0513 16.2905 38.3815C16.2905 40.7117 14.0982 42.6145 11.5987 42.6145ZM16.5535 22.5414V31.3127C15.0613 29.6033 12.2994 28.8663 10.196 28.8663C5.10989 28.8663 0.285645 32.5177 0.285645 38.3815C0.285645 44.2453 5.1087 47.9358 10.196 47.9358C12.3012 47.9358 15.0631 47.1978 16.5535 45.4503V47.4693H22.9994V19.7336L16.5535 22.5414Z" fill="white"/>
</mask>
<g mask="url(#mask3_247_1911)">
<path d="M-0.763428 -0.676025H23.8176V48.5501H-0.763428V-0.676025Z" fill="#161616"/>
</g>
</g>
</svg>
