<svg width="28" height="28" viewBox="0 0 28 28" fill="none" xmlns="http://www.w3.org/2000/svg">
<path fill-rule="evenodd" clip-rule="evenodd" d="M15 0H13V3H15V0ZM28 13H25V15H28V13ZM13 28V25H15V28H13ZM3 13H0V15H3V13ZM3.44992 4.88354L4.86414 3.46933L6.98546 5.59065L5.57124 7.00486L3.44992 4.88354ZM23.121 3.45961L20.9996 5.58093L22.4139 6.99515L24.5352 4.87383L23.121 3.45961ZM21.0023 22.4165L22.4165 21.0023L24.5378 23.1236L23.1236 24.5378L21.0023 22.4165ZM3.47 23.13L5.59 21L7 22.42L4.88 24.54L3.47 23.13ZM9.55544 7.34824C10.871 6.46919 12.4177 6 14 6C16.1217 6 18.1566 6.84285 19.6569 8.34315C21.1571 9.84344 22 11.8783 22 14C22 15.5823 21.5308 17.129 20.6518 18.4446C19.7727 19.7602 18.5233 20.7855 17.0615 21.391C15.5997 21.9965 13.9911 22.155 12.4393 21.8463C10.8874 21.5376 9.46196 20.7757 8.34315 19.6569C7.22433 18.538 6.4624 17.1126 6.15372 15.5607C5.84504 14.0089 6.00346 12.4003 6.60896 10.9385C7.21446 9.47672 8.23984 8.22729 9.55544 7.34824ZM9.75736 18.2426C10.8826 19.3679 12.4087 20 14 20V8C12.4087 8 10.8826 8.63214 9.75736 9.75736C8.63214 10.8826 8 12.4087 8 14C8 15.5913 8.63214 17.1174 9.75736 18.2426Z" fill="#161616"/>
</svg>
